<svg xmlns="http://www.w3.org/2000/svg" display="none">
  <symbol id="cart" viewBox="0 0 24 21">
    <svg>
      <path d="M18.75 16.5C19.0625 16.5 19.3555 16.5586 19.6289 16.6758C19.9023 16.793 20.1406 16.9531 20.3438 17.1562C20.5469 17.3594 20.707 17.5977 20.8242 17.8711C20.9414 18.1445 21 18.4375 21 18.75C21 19.0625 20.9414 19.3555 20.8242 19.6289C20.707 19.9023 20.5469 20.1406 20.3438 20.3438C20.1406 20.5469 19.9023 20.707 19.6289 20.8242C19.3555 20.9414 19.0625 21 18.75 21C18.4375 21 18.1445 20.9414 17.8711 20.8242C17.5977 20.707 17.3594 20.5469 17.1562 20.3438C16.9531 20.1406 16.793 19.9023 16.6758 19.6289C16.5586 19.3555 16.5 19.0625 16.5 18.75C16.5 18.5078 16.543 18.2578 16.6289 18H10.3711C10.457 18.2578 10.5 18.5078 10.5 18.75C10.5 19.0625 10.4414 19.3555 10.3242 19.6289C10.207 19.9023 10.0469 20.1406 9.84375 20.3438C9.64062 20.5469 9.40234 20.707 9.12891 20.8242C8.85547 20.9414 8.5625 21 8.25 21C7.9375 21 7.64453 20.9414 7.37109 20.8242C7.09766 20.707 6.85938 20.5469 6.65625 20.3438C6.45312 20.1406 6.29297 19.9023 6.17578 19.6289C6.05859 19.3555 6 19.0625 6 18.75C6 18.3203 6.11328 17.9219 6.33984 17.5547C6.56641 17.1875 6.87891 16.9102 7.27734 16.7227L2.21484 1.5H0V0H3.29297L4.28906 3H24L20.5078 13.5H7.79297L8.78906 16.5H18.75ZM4.79297 4.5L7.28906 12H19.418L21.9141 4.5H4.79297ZM9 18.75C9 18.5469 8.92578 18.3711 8.77734 18.2227C8.62891 18.0742 8.45312 18 8.25 18C8.04688 18 7.87109 18.0742 7.72266 18.2227C7.57422 18.3711 7.5 18.5469 7.5 18.75C7.5 18.9531 7.57422 19.1289 7.72266 19.2773C7.87109 19.4258 8.04688 19.5 8.25 19.5C8.45312 19.5 8.62891 19.4258 8.77734 19.2773C8.92578 19.1289 9 18.9531 9 18.75ZM18.75 19.5C18.9531 19.5 19.1289 19.4258 19.2773 19.2773C19.4258 19.1289 19.5 18.9531 19.5 18.75C19.5 18.5469 19.4258 18.3711 19.2773 18.2227C19.1289 18.0742 18.9531 18 18.75 18C18.5469 18 18.3711 18.0742 18.2227 18.2227C18.0742 18.3711 18 18.5469 18 18.75C18 18.9531 18.0742 19.1289 18.2227 19.2773C18.3711 19.4258 18.5469 19.5 18.75 19.5Z" />
    </svg>
  </symbol>
  <symbol id="cross" viewBox="0 0 19 18">
    <svg>
      <path d="M10.756 9L18.7001 16.9629L17.6639 18L9.70834 10.0487L1.75274 18L0.716553 16.9629L8.66064 9L0.716553 1.03713L1.75274 0L9.70834 7.95134L17.6639 0L18.7001 1.03713L10.756 9Z" fill="#CFCFCF"/>
    </svg>
  </symbol>
  <symbol id="minus" viewBox="0 0 21 20">
    <svg>
      <path d="M10.8879 0C11.8037 0 12.6883 0.118056 13.5417 0.354167C14.3951 0.590278 15.1895 0.927083 15.925 1.36458C16.6604 1.80208 17.3334 2.32292 17.944 2.92708C18.5545 3.53125 19.0749 4.20486 19.505 4.94792C19.9352 5.69097 20.2717 6.48958 20.5145 7.34375C20.7574 8.19792 20.8788 9.08333 20.8788 10C20.8788 10.9167 20.7608 11.8021 20.5249 12.6562C20.289 13.5104 19.9525 14.3056 19.5154 15.0417C19.0783 15.7778 18.558 16.4514 17.9544 17.0625C17.3507 17.6736 16.6777 18.1944 15.9354 18.625C15.193 19.0556 14.3951 19.3924 13.5417 19.6354C12.6883 19.8785 11.8037 20 10.8879 20C9.97206 20 9.08745 19.8819 8.23406 19.6458C7.38067 19.4097 6.58626 19.0729 5.85082 18.6354C5.11538 18.1979 4.44238 17.6771 3.83183 17.0729C3.22127 16.4688 2.70091 15.7951 2.27075 15.0521C1.84059 14.309 1.50409 13.5139 1.26125 12.6667C1.01842 11.8194 0.897003 10.9306 0.897003 10C0.897003 9.08333 1.01495 8.19792 1.25085 7.34375C1.48674 6.48958 1.82324 5.69444 2.26034 4.95833C2.69744 4.22222 3.2178 3.54861 3.82142 2.9375C4.42504 2.32639 5.09803 1.80556 5.84041 1.375C6.58279 0.944444 7.3772 0.607639 8.22365 0.364583C9.0701 0.121528 9.95818 0 10.8879 0ZM10.8879 18.6667C11.6858 18.6667 12.4524 18.566 13.1879 18.3646C13.9233 18.1632 14.6137 17.8715 15.2589 17.4896C15.9041 17.1076 16.4869 16.6562 17.0073 16.1354C17.5277 15.6146 17.9786 15.0312 18.3602 14.3854C18.7418 13.7396 19.0332 13.0486 19.2344 12.3125C19.4356 11.5764 19.5397 10.8056 19.5467 10C19.5467 9.20139 19.4461 8.43403 19.2449 7.69792C19.0436 6.96181 18.7522 6.27083 18.3706 5.625C17.9891 4.97917 17.5381 4.39583 17.0177 3.875C16.4974 3.35417 15.9146 2.90278 15.2693 2.52083C14.6241 2.13889 13.9337 1.84722 13.1983 1.64583C12.4628 1.44444 11.6927 1.34028 10.8879 1.33333C10.09 1.33333 9.32335 1.43403 8.5879 1.63542C7.85246 1.83681 7.16212 2.12847 6.51688 2.51042C5.87163 2.89236 5.28883 3.34375 4.76847 3.86458C4.24811 4.38542 3.79714 4.96875 3.41554 5.61458C3.03394 6.26042 2.74254 6.95139 2.54134 7.6875C2.34013 8.42361 2.23606 9.19444 2.22912 10C2.22912 10.7986 2.32972 11.566 2.53093 12.3021C2.73213 13.0382 3.02354 13.7292 3.40513 14.375C3.78673 15.0208 4.23771 15.6042 4.75806 16.125C5.27842 16.6458 5.86123 17.0972 6.50647 17.4792C7.15171 17.8611 7.84206 18.1528 8.5775 18.3542C9.31294 18.5556 10.0831 18.6597 10.8879 18.6667ZM4.89336 9.33333H16.8824V10.6667H4.89336V9.33333Z" fill="black"/>
    </svg>
  </symbol>
  <symbol id="plus" viewBox="0 0 21 20">
    <svg>
      <path d="M10.8305 0C11.7476 0 12.6322 0.117188 13.4843 0.351562C14.3364 0.585938 15.1299 0.924479 15.8649 1.36719C16.6 1.8099 17.2732 2.33073 17.8846 2.92969C18.496 3.52865 19.0196 4.20247 19.4554 4.95117C19.8912 5.69987 20.2262 6.4974 20.4604 7.34375C20.6945 8.1901 20.8149 9.07552 20.8214 10C20.8214 10.918 20.7043 11.8034 20.4701 12.6562C20.236 13.5091 19.8977 14.3034 19.4554 15.0391C19.0131 15.7747 18.4928 16.4486 17.8943 17.0605C17.2959 17.6725 16.6227 18.1966 15.8747 18.6328C15.1267 19.069 14.3299 19.4043 13.4843 19.6387C12.6387 19.873 11.7541 19.9935 10.8305 20C9.91334 20 9.02873 19.8828 8.17664 19.6484C7.32456 19.4141 6.52776 19.0788 5.78625 18.6426C5.04473 18.2064 4.37152 17.6855 3.7666 17.0801C3.16169 16.4746 2.64133 15.7975 2.20553 15.0488C1.76973 14.3001 1.43474 13.5059 1.20058 12.666C0.966422 11.8262 0.846089 10.9375 0.839584 10C0.839584 9.08203 0.956665 8.19661 1.19083 7.34375C1.42499 6.49089 1.76322 5.69661 2.20553 4.96094C2.64783 4.22526 3.16819 3.55143 3.7666 2.93945C4.36502 2.32747 5.03823 1.80339 5.78625 1.36719C6.53426 0.93099 7.33106 0.595703 8.17664 0.361328C9.02223 0.126953 9.90684 0.00651042 10.8305 0ZM10.8305 18.75C11.637 18.75 12.4111 18.6458 13.1526 18.4375C13.8941 18.2292 14.5901 17.9362 15.2405 17.5586C15.891 17.181 16.4796 16.7253 17.0065 16.1914C17.5333 15.6576 17.9887 15.0684 18.3724 14.4238C18.7562 13.7793 19.0521 13.0827 19.2603 12.334C19.4684 11.5853 19.5725 10.8073 19.5725 10C19.5725 9.19271 19.4684 8.41797 19.2603 7.67578C19.0521 6.93359 18.7594 6.23698 18.3822 5.58594C18.0049 4.9349 17.5496 4.3457 17.0162 3.81836C16.4829 3.29102 15.8942 2.83529 15.2503 2.45117C14.6063 2.06706 13.9103 1.77083 13.1623 1.5625C12.4143 1.35417 11.637 1.25 10.8305 1.25C10.0239 1.25 9.24988 1.35417 8.50837 1.5625C7.76686 1.77083 7.07088 2.0638 6.42043 2.44141C5.76998 2.81901 5.18133 3.27474 4.65447 3.80859C4.1276 4.34245 3.67229 4.93164 3.28852 5.57617C2.90476 6.2207 2.6088 6.91732 2.40066 7.66602C2.19252 8.41471 2.08845 9.19271 2.08845 10C2.08845 10.8073 2.19252 11.582 2.40066 12.3242C2.6088 13.0664 2.90151 13.763 3.27877 14.4141C3.65603 15.0651 4.11134 15.6576 4.64471 16.1914C5.17808 16.7253 5.76673 17.181 6.41068 17.5586C7.05462 17.9362 7.7506 18.2292 8.49862 18.4375C9.24663 18.6458 10.0239 18.75 10.8305 18.75ZM11.4549 9.36523H15.8259V10.6152H11.4549V15H10.206V10.6152H5.83503V9.36523H10.206V5H11.4549V9.36523Z" fill="black"/>
    </svg>
  </symbol>
</svg>

